<?xml version="1.0" standalone="no"?>
<!DOCTYPE svg PUBLIC "-//W3C//DTD SVG 20010904//EN"
 "http://www.w3.org/TR/2001/REC-SVG-20010904/DTD/svg10.dtd">
<svg version="1.0" xmlns="http://www.w3.org/2000/svg"
 width="1099.000000pt" height="110.000000pt" viewBox="0 0 1099.000000 110.000000"
 preserveAspectRatio="xMidYMid meet">

<g transform="translate(0.000000,110.000000) scale(0.100000,-0.100000)"
fill="#000000" stroke="none">
<path d="M1989 1016 c-4 -4 -4 -27 -1 -52 3 -33 1 -49 -9 -55 -10 -6 -5 -9 16
-9 17 0 25 3 18 8 -6 4 -13 31 -15 61 -2 29 -6 50 -9 47z"/>
<path d="M2853 1014 c20 -6 23 -34 5 -52 -9 -9 -9 -12 1 -12 9 0 12 -9 9 -24
-4 -17 -1 -23 9 -19 14 6 17 25 6 37 -5 4 -8 22 -8 39 0 24 -5 32 -20 34 -15
1 -16 1 -2 -3z"/>
<path d="M3709 1016 c-4 -4 -4 -27 -1 -52 3 -33 1 -49 -9 -55 -10 -6 -5 -9 16
-9 17 0 25 3 18 8 -6 4 -13 31 -15 61 -2 29 -6 50 -9 47z"/>
<path d="M10553 1005 c-3 -9 -3 -18 -1 -21 3 -3 8 4 11 16 6 23 -1 27 -10 5z"/>
<path d="M10589 1006 c9 -10 10 -20 3 -32 -7 -12 -6 -24 2 -36 9 -15 8 -21 -4
-28 -8 -5 -10 -10 -4 -10 20 0 39 29 26 42 -6 6 -8 23 -5 38 3 20 0 29 -12 34
-15 5 -16 4 -6 -8z"/>
<path d="M1132 963 c-1 -30 -7 -53 -14 -56 -7 -3 1 -6 17 -6 17 0 25 3 18 7
-6 4 -13 30 -16 57 l-3 50 -2 -52z"/>
<path d="M2821 994 c0 -11 3 -14 6 -6 3 7 2 16 -1 19 -3 4 -6 -2 -5 -13z"/>
<path d="M234 904 c-9 -22 -12 -48 -8 -70 11 -58 21 -47 20 22 -1 47 3 67 14
74 11 7 11 10 2 10 -7 0 -20 -16 -28 -36z"/>
<path d="M7125 929 c-17 -6 -17 -8 -2 -8 14 -1 17 -11 17 -65 0 -53 -3 -65
-17 -69 -10 -3 0 -5 22 -5 22 0 34 2 28 5 -9 3 -13 28 -13 73 0 38 -3 71 -7
73 -5 3 -17 1 -28 -4z"/>
<path d="M304 859 c0 -45 3 -66 10 -59 12 12 12 90 0 112 -6 11 -9 -5 -10 -53z"/>
<path d="M2820 921 c0 -6 4 -13 10 -16 6 -3 7 1 4 9 -7 18 -14 21 -14 7z"/>
<path d="M10540 919 c0 -5 5 -7 10 -4 6 3 10 8 10 11 0 2 -4 4 -10 4 -5 0 -10
-5 -10 -11z"/>
<path d="M1108 853 c18 -2 45 -2 60 0 15 2 0 4 -33 4 -33 0 -45 -2 -27 -4z"/>
<path d="M1968 853 c18 -2 45 -2 60 0 15 2 0 4 -33 4 -33 0 -45 -2 -27 -4z"/>
<path d="M2828 853 c18 -2 45 -2 60 0 15 2 0 4 -33 4 -33 0 -45 -2 -27 -4z"/>
<path d="M3688 853 c18 -2 45 -2 60 0 15 2 0 4 -33 4 -33 0 -45 -2 -27 -4z"/>
<path d="M10553 853 c15 -2 39 -2 55 0 15 2 2 4 -28 4 -30 0 -43 -2 -27 -4z"/>
<path d="M2001 820 c-2 -8 -2 -27 -1 -42 1 -22 -3 -27 -27 -31 l-28 -4 28 -2
c28 -1 37 -15 15 -24 -7 -3 1 -6 17 -6 23 -1 27 2 15 9 -13 9 -13 11 0 20 9 6
10 10 3 10 -7 0 -14 19 -16 43 -2 23 -5 35 -6 27z"/>
<path d="M2860 826 c0 -2 8 -10 18 -17 15 -13 16 -12 3 4 -13 16 -21 21 -21
13z"/>
<path d="M3686 822 c-3 -5 5 -8 17 -8 19 1 22 -4 20 -32 -1 -27 1 -31 13 -21
17 14 18 41 2 57 -14 14 -44 16 -52 4z"/>
<path d="M10552 818 c-15 -15 -16 -38 -2 -38 6 0 10 8 8 18 -2 11 3 17 17 17
33 0 30 -34 -6 -71 l-33 -34 37 0 c20 0 37 4 37 9 0 5 -9 7 -20 4 -11 -3 -20
-1 -20 4 0 6 9 18 20 28 24 22 26 60 4 69 -22 8 -28 8 -42 -6z"/>
<path d="M1161 808 c-1 -26 -20 -32 -42 -12 -20 18 -27 6 -8 -13 8 -8 8 -13 0
-17 -6 -4 -11 -17 -10 -29 1 -20 2 -20 8 3 4 14 13 25 21 25 8 0 20 -11 27
-25 12 -24 13 -24 13 -3 0 12 -5 25 -10 28 -8 5 -7 11 0 21 7 7 10 19 7 26 -4
8 -6 7 -6 -4z"/>
<path d="M2820 808 c0 -9 5 -20 10 -23 8 -5 7 -12 -2 -23 -12 -15 -11 -15 4
-4 14 11 20 10 37 -7 15 -15 21 -17 21 -7 0 8 -5 18 -10 21 -6 4 -8 11 -5 16
3 5 0 6 -8 3 -9 -3 -22 4 -31 18 -12 17 -16 19 -16 6z"/>
<path d="M3675 790 c3 -5 8 -10 11 -10 2 0 4 5 4 10 0 6 -5 10 -11 10 -5 0 -7
-4 -4 -10z"/>
<path d="M2822 724 c10 -10 20 -16 22 -13 3 3 -5 11 -17 18 -21 13 -21 12 -5
-5z"/>
<path d="M3740 731 c0 -9 -9 -12 -25 -9 -14 3 -28 1 -31 -3 -3 -5 8 -9 25 -9
29 0 49 15 37 27 -3 4 -6 1 -6 -6z"/>
<path d="M229 595 c-14 -8 -32 -28 -39 -45 -17 -42 5 -91 50 -110 27 -11 36
-11 65 3 18 9 36 25 40 36 6 21 12 21 355 21 343 0 349 0 355 -21 4 -11 22
-27 41 -36 31 -15 37 -15 68 0 19 9 37 25 41 36 6 21 12 21 355 21 343 0 349
0 355 -21 4 -11 22 -27 41 -36 31 -15 37 -15 68 0 19 9 37 25 41 36 6 21 12
21 355 21 343 0 349 0 355 -21 4 -11 22 -27 41 -36 31 -15 37 -15 68 0 19 9
37 25 41 36 6 21 12 21 355 21 343 0 349 0 355 -21 4 -11 22 -27 41 -36 31
-15 37 -15 68 0 19 9 37 25 41 36 l6 21 1634 0 1634 0 6 -21 c4 -11 22 -27 41
-36 31 -15 37 -15 68 0 19 9 37 25 41 36 l6 21 1634 0 1634 0 6 -21 c4 -11 22
-27 41 -36 31 -15 37 -15 67 -1 70 34 70 122 0 156 -30 14 -36 14 -67 -1 -19
-9 -37 -25 -41 -36 l-6 -21 -1634 0 -1634 0 -6 21 c-4 11 -22 27 -41 36 -31
15 -37 15 -68 0 -19 -9 -37 -25 -41 -36 l-6 -21 -1634 0 -1634 0 -6 21 c-4 11
-22 27 -41 36 -31 15 -37 15 -68 0 -19 -9 -37 -25 -41 -36 -6 -21 -12 -21
-355 -21 -343 0 -349 0 -355 21 -4 11 -22 27 -41 36 -31 15 -37 15 -68 0 -19
-9 -37 -25 -41 -36 -6 -21 -12 -21 -355 -21 -343 0 -349 0 -355 21 -4 11 -22
27 -41 36 -31 15 -37 15 -68 0 -19 -9 -37 -25 -41 -36 -6 -21 -12 -21 -355
-21 -343 0 -349 0 -355 21 -4 11 -22 27 -41 36 -31 15 -37 15 -68 0 -19 -9
-37 -25 -41 -36 -6 -21 -12 -21 -355 -21 -341 0 -349 0 -355 20 -6 20 -53 50
-77 50 -7 -1 -25 -7 -39 -15z"/>
</g>
</svg>
